<?xml version="1.0" encoding="UTF-8"?>
<svg id="Layer_1" data-name="Layer 1" xmlns="http://www.w3.org/2000/svg" viewBox="0 0 549.12 449">
  <defs>
    <style>
      .cls-1 {
        fill: #7e1518;
      }

      .cls-2 {
        fill: #252122;
      }

      .cls-3 {
        fill: #f5f5f5;
      }
    </style>
  </defs>
  <path class="cls-1" d="M302.13,107.94c0,8.64,0,17.29,0,25.93.02,33.57-.02,67.16,0,100.72h-25.07V89.46s-.59-.64-.64-.64h-49.51v62.05l1.69-.22,21.68-17.63v101.57h-22.31s-.64-.59-.64-.64v-49.09c-.92.07-1.76.97-2.51,1.53-7.64,5.69-14.89,12.06-22.14,18.23v55.46h99.45v25.92c-.14,0-.92.7-1.44.46h-119.92s-1.28-.43-1.28-.43c-.75-31.85.52-63.59.25-95.43l1.26-1.71,22.1-17.85v-106.89h98.39c.35,0,.75,1.03.66,1.47-.03,14.1-.04,28.21-.02,42.31Z"/>
  <path class="cls-2" d="M359.5,55.24c-.36.28-1.29,1.53-1.39,1.58-.54.24-1.49.05-1.58.14-.06.06-.06,1.62,0,1.68.13.12.96-.12,1.36.03.36.13.35.6.49.67.59.29,2.56.69,2.82,1.44.28.8.78,6.22.85,7.44.92,16.62-5.69,33.79-17.46,45.43-1.13,1.12-6.17,4.76-6.55,5.35-.99,1.51,2.14,2.13,3.48,2.91,77.71,45.34,48.08,158.93-39.39,164.12v-25.92c42.43-3.86,69.25-42.7,57.17-84.16-7.45-25.57-30.11-43.3-57.17-42.07,0-8.64,0-17.29,0-25.93,14.46.33,27.32-7.69,32.51-21.26,4.78-12.49,1.74-27.93-7.86-37.39,1.84-.02,3.28,1.67,5.08,2.35.57.22,2.7,1,2.86,1.04.87.2,1.95-.18,2.82.02.31.07.26.76.58.83,1.1.26,8.79.22,10.15.04.79-.1.55-.8.9-.88,1.59-.34,3.02-.51,4.65-1.25.41-.18,2.83-2.56,3.13-3.01l2.55,6.8Z"/>
  <path class="cls-2" d="M126.18,307.69l14.67,43.78,15.3-43.78h25.71v62.05h-17.42v-48.45c-1.25-.2-.69.3-.9.99-1.31,4.28-2.14,8.9-3.37,13.22-3.29,11.48-7.24,22.8-11.41,33.98-.53.68-12.91.06-14.88.22-3.69-12.02-8.34-23.74-12.06-35.75-.88-2.83-1.49-7.32-2.52-9.8-.25-.6-.51-.85-1.18-.73v46.33h-17v-62.05h25.08Z"/>
  <path class="cls-2" d="M320.83,44.19c-9.1-5.81-18.55-4.39-28.71-4.66-1.12-.03-2.15-.44-3.36-.46-28.67-.58-57.41.47-86.08.02V12.74c13.24.09,26.51-.11,39.76-.02,20.95.15,44.86-.89,65.45.42,6.51.42,13.12,2.33,18.89,5.12.29,1.03-.23,1.02-.63,1.5-1.79,2.16-6.89,8.99-7.85,11.15-1.33,3-1.33,6.56,0,9.56.26.58,2,3.11,2.53,3.72Z"/>
  <path class="cls-2" d="M366.09,383.77l8.5,36.98,7.44-36.98h20.82v63.54s-.59.64-.64.64h-11.9s-.64-.59-.64-.64v-45.26l-9.42,45.2c-.17.52-.49.62-.99.71-1.01.19-10,.09-10.43-.2-3.99-14.73-5.94-30.11-9.4-45-.13-.56-.09-1.98-.78-1.98v47.17h-12.11s-.64-.59-.64-.64v-63.54h20.19Z"/>
  <path class="cls-2" d="M269.4,337.01c19.18,2.83,20.88,24.5,2.54,31.23-11.61,4.26-26.14,2.98-38.19,1.45v-61.96c12.58-1.63,39.67-4.48,47.06,8.73,4.75,8.49.98,16.16-7.77,19.3-1.28.46-3.03.05-3.64,1.25ZM250.7,331.07h11.26c.53,0,2.7-1.41,3.13-1.97,2.21-2.89,1.55-7.45-1.5-9.43-.37-.24-2.72-1.34-2.91-1.34h-9.35s-.64.59-.64.64v12.11ZM250.7,358.69c8.54,3.27,20.54-.06,15.38-11.34-.79-1.72-3.53-4.38-5.39-4.38h-9.99v15.72Z"/>
  <path class="cls-2" d="M35.65,337.01c9.86,1.62,16.19,7.91,14.76,18.38-1.1,8.06-9.75,12.45-16.89,14.14-10.73,2.53-22.69,1.69-33.53.16v-61.96c11.82-1.25,27.22-3.28,38.35,1.72s15.49,20.06,2.07,25.75c-1.6.68-3.72.65-4.77,1.81ZM16.95,331.07h10.41c.16,0,2.2-.74,2.49-.91,3.14-1.8,3.16-7.19.87-9.68-.52-.56-3.2-2.17-3.78-2.17h-9.35s-.64.59-.64.64v12.11ZM16.95,358.69c8.65,2.96,18.88.7,15.53-10.64-.48-1.62-4.08-5.09-5.54-5.09h-9.99v15.72Z"/>
  <path class="cls-2" d="M240.93,447.52v-63.75h25.29c24.3,0,26.06,43.25,14.23,57.15-2.34,2.74-8.51,6.6-12.1,6.6h-27.41ZM256.65,433.07h7.01c1.6,0,4.11-1.68,5.11-2.97,3.92-5,3.62-21.59.71-27.07-2.71-5.11-7.73-4.53-12.83-4.81v34.85Z"/>
  <path class="cls-2" d="M482.75,307.69v11.48h-30.81c-.23,0-.68.72-.66,1.07l.36,8.06c-.26.62-.71,3.61.3,3.61h25.08s.64.59.64.64v11.26h-25.71c-1.35,0-.2,3.82-.21,4.46-.02.73-.41,1.43-.42,2.13-.02,1.11-.36,7.86.64,7.86h32.51v11.48h-50.15v-62.05h48.45Z"/>
  <path class="cls-2" d="M311.05,397.79v9.77h24.23v13.18h-24.23v12.32h26.77v14.24s-.59.64-.64.64h-41.22s-.64-.59-.64-.64v-63.54h41.44s.64.59.64.64v12.75s-.59.64-.64.64h-25.71Z"/>
  <path class="cls-2" d="M181,447.52l18.96-63.78,17.12.07,18.74,63.71h-16.57l-2.14-10.18-17.57-.05c-1.01,3.32-2.1,6.75-2.38,10.23h-16.15ZM202.68,423.29h11.05l-5.32-21.68-5.73,21.68Z"/>
  <path class="cls-2" d="M73.05,447.52l18.48-63.33c.31-.47.79-.38,1.26-.44,4.69-.58,10.51.5,15.34,0l19.32,63.78h-16.57c-.52-2.7-.88-7.3-2-9.68-.25-.53-.07-.48-.75-.55-1.77-.19-16.14-.27-16.83.22l-2.53,10.01h-15.72ZM105.35,423.29l-5.31-22.1-5.31,22.1h10.62Z"/>
  <path class="cls-2" d="M540.06,322.08c-5.32-1.24-19.15-5.89-23.54-1.66-1.27,1.23-1.41,4.09-.4,5.54,2.49,3.56,17.41,8.06,22.31,10.84,17.47,9.91,12.12,28.64-5.96,33.15-12.59,3.14-24.62-.76-35.69-6.59-.16-.61.16-.71.41-1.07,1.74-2.52,4.91-5.11,6.66-7.81,6.24,2.59,19.79,5.66,25.43,1.23,2.78-2.18,2.96-6.11.31-8.5-7.53-6.83-25.73-4.92-29.65-19.11-5.67-20.53,21.53-23.92,35.67-19.95,1.61.45,10.51,3.75,10.85,4.91.39,1.32-5.8,7.27-6.42,9.02Z"/>
  <path class="cls-2" d="M178.03,402.89l-13.75,3.43c-1.57-6.08-6.35-10.71-12.89-7.75-7.78,3.52-7.53,25.1-3.9,31.25,3.64,6.17,12.07,5.15,15.19-1.27.55-1.13,2.01-6.86,2.42-6.94,1.74.99,12.64,4.22,13.17,5.07,1.03,1.65-3.11,10.82-4.31,12.72-5.95,9.41-17.51,11.3-27.72,8.24-19.9-5.96-21.46-43.74-9.45-57.3,5.76-6.49,13.01-8.11,21.49-7.44,11.34.89,17.44,9.64,19.75,19.99Z"/>
  <path class="cls-1" d="M328.9,19.12l-10.2-17.42,46.96-1.7,21.03,33.36c-.29.4-.55.56-1.05.64-1.3.21-7.22.18-7.78.51l-9.81,14.23c-.61,1.42.46,2.22-1.33,3.74-.44.37-1.39.46-1.59.74-.38.52-1.26,5.65-1.87,6.84-.48.95-1.17.75-2.05.72-.26-.75-2.23-1.15-2.82-1.44-.14-.07-.13-.53-.49-.67-.4-.15-1.23.09-1.36-.03-.06-.06-.06-1.62,0-1.68.09-.09,1.04.1,1.58-.14.1-.04,1.03-1.3,1.39-1.58.91-.7,2.88-1.89,3.41-2.75,1.02-1.64.31-3.48,3.28-3.73l9.46-14.34c-1.48.04-2.97-.07-4.46,0-7.28.35-14.7.97-21.89,1.27-1.26.05-9.45.36-9.77,0-.08-.09.11-1.03-.13-1.58-.09-.2-1.24-.8-1.44-1.1-.26-.42-.87-2.75-1.12-3.13-1.16-1.75-3.73-4.43-4.83-6.22-.26-.42-.88-2.76-1.13-3.13-.32-.47-1.45-1.12-1.98-1.41Z"/>
  <path class="cls-2" d="M309.78,307.69l13.65,25.23,1.42.71,13.83-25.95h18.27l-5.17,8.64c-1.87,3.67-18.63,26.83-18.63,28.55v24.86h-17.43v-24.86c0-1.41-14.19-20.32-15.64-23.46l-8.58-13.73h18.28Z"/>
  <path class="cls-2" d="M421.55,307.69v11.48h-21.68v50.58h-17.42v-49.94s-.59-.64-.64-.64h-19.76v-11.48h59.5Z"/>
  <polygon class="cls-2" points="424.74 383.77 434.94 405.02 444.93 383.77 462.35 383.77 442.8 420.96 442.8 447.52 427.08 447.52 427.08 420.96 407.53 383.77 424.74 383.77"/>
  <rect class="cls-2" x="66.68" y="307.69" width="16.57" height="62.05"/>
  <path class="cls-1" d="M327.63,18.69c.25.67.53,1.61.9,2.19,3.23,5.01,6.7,9.35,9.34,14.45.21.42.66.34.79.69.15.4-.1,1.23.02,1.36.13.15,3.54.1,3.96,0,.33-.08.29-.86.51-.87.63-.02,1.4.87,2.52.89,1.23.02,2.84-.81,4.05-.86.15,0,.65.42,1.1.41,4.57-.18,9.21-.37,13.77-.83.17.69-.14.98-.41,1.5-1.49,2.78-5.01,6.76-7,9.59-.3.43-.15,1.11-.23,1.24-.3.45-2.72,2.83-3.13,3.01-1.63.73-3.07.91-4.65,1.25-.35.07-.11.77-.9.88-1.36.18-9.05.22-10.15-.04-.32-.08-.27-.76-.58-.83-.87-.2-1.95.18-2.82-.02-.16-.04-2.28-.82-2.86-1.04-1.8-.68-3.24-2.38-5.08-2.35-1.93-1.91-4.01-2.88-5.95-5.1-.53-.61-2.28-3.14-2.53-3.72-1.33-3-1.33-6.56,0-9.56.96-2.16,6.06-8.98,7.85-11.15.4-.48.92-.47.63-1.5.28.14.57.28.85.43Z"/>
  <path class="cls-2" d="M328.9,19.12c.54.29,1.66.95,1.98,1.41.25.37.87,2.71,1.13,3.13,1.1,1.79,3.67,4.47,4.83,6.22.25.38.86,2.71,1.12,3.13.19.31,1.35.91,1.44,1.1.24.55.05,1.48.13,1.58.32.37,8.51.06,9.77,0l.42.85c-1.21.05-2.83.88-4.05.86-1.12-.01-1.89-.9-2.52-.89-.22,0-.18.79-.51.87-.43.1-3.83.15-3.96,0-.12-.14.13-.96-.02-1.36-.13-.34-.58-.27-.79-.69-2.64-5.1-6.11-9.44-9.34-14.45-.37-.58-.65-1.52-.9-2.19.44.23.98.27,1.28.43Z"/>
  <path class="cls-3" d="M16.95,358.69v-15.72h9.99c1.46,0,5.06,3.46,5.54,5.09,3.35,11.34-6.87,13.59-15.53,10.64Z"/>
</svg>