<?xml version="1.0" encoding="UTF-8"?>
<svg id="Layer_1" xmlns="http://www.w3.org/2000/svg" version="1.1" viewBox="0 0 700 612">
  <!-- Generator: Adobe Illustrator 29.2.1, SVG Export Plug-In . SVG Version: 2.1.0 Build 116)  -->
  <defs>
    <style>
      .st0 {
        fill: #7e1518;
      }

      .st1 {
        fill: #252122;
      }
    </style>
  </defs>
  <path class="st0" d="M392.3,165c0,8.6,0,17.3,0,25.9,0,33.6,0,67.2,0,100.7h-25.1v-145.1s-.6-.6-.6-.6h-49.5v62.1l1.7-.2,21.7-17.6v101.6h-22.3s-.6-.6-.6-.6v-49.1c-.9,0-1.8,1-2.5,1.5-7.6,5.7-14.9,12.1-22.1,18.2v55.5h99.4v25.9c-.1,0-.9.7-1.4.5h-119.9s-1.3-.4-1.3-.4c-.8-31.8.5-63.6.2-95.4l1.3-1.7,22.1-17.8v-106.9h98.4c.4,0,.8,1,.7,1.5,0,14.1,0,28.2,0,42.3Z"/>
  <path class="st1" d="M449.7,112.3c-.4.3-1.3,1.5-1.4,1.6-.5.2-1.5,0-1.6.1s0,1.6,0,1.7c.1.1,1-.1,1.4,0s.4.6.5.7c.6.3,2.6.7,2.8,1.4s.8,6.2.8,7.4c.9,16.6-5.7,33.8-17.5,45.4s-6.2,4.8-6.6,5.3c-1,1.5,2.1,2.1,3.5,2.9,77.7,45.3,48.1,158.9-39.4,164.1v-25.9c42.4-3.9,69.2-42.7,57.2-84.2-7.5-25.6-30.1-43.3-57.2-42.1,0-8.6,0-17.3,0-25.9,14.5.3,27.3-7.7,32.5-21.3s1.7-27.9-7.9-37.4c1.8,0,3.3,1.7,5.1,2.4s2.7,1,2.9,1c.9.2,1.9-.2,2.8,0s.3.8.6.8c1.1.3,8.8.2,10.1,0s.6-.8.9-.9c1.6-.3,3-.5,4.7-1.2s2.8-2.6,3.1-3l2.5,6.8Z"/>
  <path class="st1" d="M216.4,364.7l14.7,43.8,15.3-43.8h25.7v62.1h-17.4v-48.5c-1.2-.2-.7.3-.9,1-1.3,4.3-2.1,8.9-3.4,13.2-3.3,11.5-7.2,22.8-11.4,34-.5.7-12.9,0-14.9.2-3.7-12-8.3-23.7-12.1-35.7-.9-2.8-1.5-7.3-2.5-9.8s-.5-.9-1.2-.7v46.3h-17v-62.1h25.1Z"/>
  <path class="st1" d="M411,101.2c-9.1-5.8-18.5-4.4-28.7-4.7s-2.2-.4-3.4-.5c-28.7-.6-57.4.5-86.1,0v-26.3c13.2,0,26.5-.1,39.8,0,21,.1,44.9-.9,65.5.4,6.5.4,13.1,2.3,18.9,5.1.3,1-.2,1-.6,1.5-1.8,2.2-6.9,9-7.9,11.1s-1.3,6.6,0,9.6,2,3.1,2.5,3.7Z"/>
  <path class="st1" d="M456.3,440.8l8.5,37,7.4-37h20.8v63.5s-.6.6-.6.6h-11.9s-.6-.6-.6-.6v-45.3l-9.4,45.2c-.2.5-.5.6-1,.7-1,.2-10,0-10.4-.2-4-14.7-5.9-30.1-9.4-45s0-2-.8-2v47.2h-12.1s-.6-.6-.6-.6v-63.5h20.2Z"/>
  <path class="st1" d="M359.6,394.1c19.2,2.8,20.9,24.5,2.5,31.2-11.6,4.3-26.1,3-38.2,1.5v-62c12.6-1.6,39.7-4.5,47.1,8.7,4.8,8.5,1,16.2-7.8,19.3s-3,0-3.6,1.2ZM340.9,388.1h11.3c.5,0,2.7-1.4,3.1-2,2.2-2.9,1.6-7.4-1.5-9.4s-2.7-1.3-2.9-1.3h-9.3s-.6.6-.6.6v12.1ZM340.9,415.7c8.5,3.3,20.5,0,15.4-11.3s-3.5-4.4-5.4-4.4h-10v15.7Z"/>
  <path class="st1" d="M125.8,394.1c9.9,1.6,16.2,7.9,14.8,18.4s-9.7,12.5-16.9,14.1c-10.7,2.5-22.7,1.7-33.5.2v-62c11.8-1.2,27.2-3.3,38.4,1.7s15.5,20.1,2.1,25.7c-1.6.7-3.7.7-4.8,1.8ZM107.1,388.1h10.4c.2,0,2.2-.7,2.5-.9,3.1-1.8,3.2-7.2.9-9.7s-3.2-2.2-3.8-2.2h-9.4s-.6.6-.6.6v12.1ZM107.1,415.7c8.7,3,18.9.7,15.5-10.6s-4.1-5.1-5.5-5.1h-10v15.7Z"/>
  <path class="st1" d="M331.1,504.6v-63.8h25.3c24.3,0,26.1,43.3,14.2,57.2-2.3,2.7-8.5,6.6-12.1,6.6h-27.4ZM346.8,490.1h7c1.6,0,4.1-1.7,5.1-3,3.9-5,3.6-21.6.7-27.1s-7.7-4.5-12.8-4.8v34.8Z"/>
  <path class="st1" d="M572.9,364.7v11.5h-30.8c-.2,0-.7.7-.7,1.1l.4,8.1c-.3.6-.7,3.6.3,3.6h25.1s.6.6.6.6v11.3h-25.7c-1.3,0-.2,3.8-.2,4.5s-.4,1.4-.4,2.1c0,1.1-.4,7.9.6,7.9h32.5v11.5h-50.1v-62.1h48.4Z"/>
  <path class="st1" d="M401.2,454.8v9.8h24.2v13.2h-24.2v12.3h26.8v14.2s-.6.6-.6.6h-41.2s-.6-.6-.6-.6v-63.5h41.4s.6.6.6.6v12.8s-.6.6-.6.6h-25.7Z"/>
  <path class="st1" d="M271.2,504.6l19-63.8h17.1c0,0,18.7,63.8,18.7,63.8h-16.6l-2.1-10.2h-17.6c-1,3.3-2.1,6.7-2.4,10.2h-16.1ZM292.9,480.3h11l-5.3-21.7-5.7,21.7Z"/>
  <path class="st1" d="M163.2,504.6l18.5-63.3c.3-.5.8-.4,1.3-.4,4.7-.6,10.5.5,15.3,0l19.3,63.8h-16.6c-.5-2.7-.9-7.3-2-9.7s0-.5-.7-.6c-1.8-.2-16.1-.3-16.8.2l-2.5,10h-15.7ZM195.5,480.3l-5.3-22.1-5.3,22.1h10.6Z"/>
  <path class="st1" d="M630.2,379.1c-5.3-1.2-19.1-5.9-23.5-1.7s-1.4,4.1-.4,5.5c2.5,3.6,17.4,8.1,22.3,10.8,17.5,9.9,12.1,28.6-6,33.2-12.6,3.1-24.6-.8-35.7-6.6-.2-.6.2-.7.4-1.1,1.7-2.5,4.9-5.1,6.7-7.8,6.2,2.6,19.8,5.7,25.4,1.2s3-6.1.3-8.5c-7.5-6.8-25.7-4.9-29.6-19.1-5.7-20.5,21.5-23.9,35.7-19.9s10.5,3.7,10.8,4.9-5.8,7.3-6.4,9Z"/>
  <path class="st1" d="M268.2,459.9l-13.8,3.4c-1.6-6.1-6.4-10.7-12.9-7.8s-7.5,25.1-3.9,31.2c3.6,6.2,12.1,5.1,15.2-1.3s2-6.9,2.4-6.9c1.7,1,12.6,4.2,13.2,5.1,1,1.7-3.1,10.8-4.3,12.7-6,9.4-17.5,11.3-27.7,8.2-19.9-6-21.5-43.7-9.4-57.3,5.8-6.5,13-8.1,21.5-7.4,11.3.9,17.4,9.6,19.7,20Z"/>
  <path class="st0" d="M419.1,76.2l-10.2-17.4,47-1.7,21,33.4c-.3.4-.6.6-1,.6-1.3.2-7.2.2-7.8.5l-9.8,14.2c-.6,1.4.5,2.2-1.3,3.7s-1.4.5-1.6.7c-.4.5-1.3,5.6-1.9,6.8s-1.2.8-2,.7c-.3-.7-2.2-1.1-2.8-1.4s-.1-.5-.5-.7-1.2,0-1.4,0,0-1.6,0-1.7c0,0,1,.1,1.6-.1s1-1.3,1.4-1.6c.9-.7,2.9-1.9,3.4-2.7,1-1.6.3-3.5,3.3-3.7l9.5-14.3c-1.5,0-3,0-4.5,0-7.3.4-14.7,1-21.9,1.3s-9.4.4-9.8,0,.1-1-.1-1.6-1.2-.8-1.4-1.1-.9-2.7-1.1-3.1c-1.2-1.7-3.7-4.4-4.8-6.2s-.9-2.8-1.1-3.1-1.4-1.1-2-1.4Z"/>
  <path class="st1" d="M400,364.7l13.7,25.2,1.4.7,13.8-25.9h18.3l-5.2,8.6c-1.9,3.7-18.6,26.8-18.6,28.5v24.9h-17.4v-24.9c0-1.4-14.2-20.3-15.6-23.5l-8.6-13.7h18.3Z"/>
  <path class="st1" d="M511.7,364.7v11.5h-21.7v50.6h-17.4v-49.9s-.6-.6-.6-.6h-19.8v-11.5h59.5Z"/>
  <polygon class="st1" points="514.9 440.8 525.1 462.1 535.1 440.8 552.5 440.8 533 478 533 504.6 517.2 504.6 517.2 478 497.7 440.8 514.9 440.8"/>
  <rect class="st1" x="156.9" y="364.7" width="16.6" height="62.1"/>
  <path class="st0" d="M417.8,75.7c.2.7.5,1.6.9,2.2,3.2,5,6.7,9.4,9.3,14.5s.7.3.8.7,0,1.2,0,1.4,3.5.1,4,0,.3-.9.5-.9c.6,0,1.4.9,2.5.9s2.8-.8,4.1-.9.7.4,1.1.4c4.6-.2,9.2-.4,13.8-.8.2.7-.1,1-.4,1.5-1.5,2.8-5,6.8-7,9.6s-.1,1.1-.2,1.2c-.3.4-2.7,2.8-3.1,3-1.6.7-3.1.9-4.7,1.2s-.1.8-.9.9c-1.4.2-9,.2-10.1,0s-.3-.8-.6-.8c-.9-.2-1.9.2-2.8,0s-2.3-.8-2.9-1c-1.8-.7-3.2-2.4-5.1-2.4-1.9-1.9-4-2.9-6-5.1s-2.3-3.1-2.5-3.7c-1.3-3-1.3-6.6,0-9.6s6.1-9,7.9-11.1.9-.5.6-1.5c.3.1.6.3.8.4Z"/>
  <path class="st1" d="M419.1,76.2c.5.3,1.7.9,2,1.4s.9,2.7,1.1,3.1c1.1,1.8,3.7,4.5,4.8,6.2s.9,2.7,1.1,3.1,1.3.9,1.4,1.1c.2.5,0,1.5.1,1.6.3.4,8.5,0,9.8,0l.4.8c-1.2,0-2.8.9-4.1.9s-1.9-.9-2.5-.9-.2.8-.5.9-3.8.1-4,0,.1-1,0-1.4-.6-.3-.8-.7c-2.6-5.1-6.1-9.4-9.3-14.5s-.7-1.5-.9-2.2c.4.2,1,.3,1.3.4Z"/>
</svg>